# xmcd
#
# Track frame offsets: 
#        150
#        33687
#        64315
#        85667
#        106214
#        137447
#        155251
#        178295
#        208448
#        237232
#        262351
#        303808
#
# Disc length: 4454 seconds
#
# Revision: 1
# Processed by: cddbd v1.5.2PL0 Copyright (c) Steve Scherf et al.
# Submitted via: ExactAudioCopy v0.99pb4
#
DISCID=ac11640c
DTITLE=Trampled Under Foot - May I Be Excused
DYEAR=2008
DGENRE=blues
TTITLE0=Fog
TTITLE1=Jonny Cheat
TTITLE2=Love My Baby
TTITLE3=You're Too Big to Carry
TTITLE4=May I Be Excused
TTITLE5=Waiting on the Line
TTITLE6=My Fault to Stay
TTITLE7=Have I Ever Told You
TTITLE8=Hot Headed Woman
TTITLE9=You Call That Love
TTITLE10=Mississippi River
TTITLE11=Comin' Home to You
EXTD=
EXTT0=
EXTT1=
EXTT2=
EXTT3=
EXTT4=
EXTT5=
EXTT6=
EXTT7=
EXTT8=
EXTT9=
EXTT10=
EXTT11=
PLAYORDER=
